<svg width="44" height="43" viewBox="0 0 44 43" fill="none" xmlns="http://www.w3.org/2000/svg">
<g filter="url(#filter0_d_957_271)">
<path d="M34.75 0H9.25C7.86185 0.0136451 6.53443 0.569845 5.55281 1.54915C4.57119 2.52845 4.01368 3.85275 4 5.23762V24.6917C4.05284 26.1237 4.56224 27.5016 5.4541 28.625C6.34596 29.7484 7.57378 30.5586 8.959 30.9379L25.6975 34.8601C26.3346 35.0246 27.0005 35.0443 27.6462 34.9177C28.2919 34.791 28.9008 34.5213 29.428 34.1283C29.9378 33.712 30.3447 33.1842 30.6173 32.5858C30.8899 31.9874 31.0209 31.3345 31 30.6775V16.1738C30.9976 14.782 30.5391 13.4292 29.6945 12.3215C28.8498 11.2138 27.6653 10.412 26.3215 10.0383L10.084 5.57133C9.94158 5.53203 9.80832 5.46513 9.69182 5.37444C9.57531 5.28376 9.47786 5.17107 9.40501 5.04281C9.33216 4.91455 9.28535 4.77323 9.26725 4.62692C9.24914 4.48061 9.2601 4.33218 9.2995 4.1901C9.3389 4.04802 9.40596 3.91507 9.49686 3.79884C9.58776 3.68261 9.70071 3.58539 9.82927 3.51271C9.95784 3.44003 10.0995 3.39333 10.2461 3.37527C10.3928 3.35721 10.5416 3.36814 10.684 3.40745L15.985 4.8665H16.003H34.75C35.0484 4.8665 35.3345 4.98475 35.5455 5.19523C35.7565 5.40571 35.875 5.69118 35.875 5.98885C35.875 6.28651 35.7565 6.57199 35.5455 6.78247C35.3345 6.99295 35.0484 7.1112 34.75 7.1112H26.8975C26.8067 7.111 26.7189 7.14369 26.6504 7.2032C26.5819 7.2627 26.5374 7.34497 26.5252 7.43473C26.5129 7.52449 26.5337 7.61565 26.5837 7.69128C26.6337 7.76691 26.7095 7.82187 26.797 7.84596L26.926 7.88187C28.6348 8.35534 30.1545 9.34553 31.276 10.7162C31.3116 10.7587 31.3561 10.7929 31.4064 10.8164C31.4567 10.8399 31.5115 10.8522 31.567 10.8524H34.75C35.0484 10.8524 35.3345 10.9706 35.5455 11.1811C35.7565 11.3916 35.875 11.677 35.875 11.9747C35.875 12.2724 35.7565 12.5578 35.5455 12.7683C35.3345 12.9788 35.0484 13.097 34.75 13.097H33.193C33.1337 13.0967 33.0752 13.1104 33.0223 13.1371C32.9694 13.1637 32.9236 13.2026 32.8887 13.2504C32.8538 13.2982 32.8309 13.3536 32.8217 13.412C32.8125 13.4705 32.8174 13.5302 32.836 13.5864C33.1118 14.4225 33.254 15.2966 33.2575 16.1768V26.5652C33.2575 26.6644 33.297 26.7596 33.3673 26.8298C33.4377 26.8999 33.533 26.9393 33.6325 26.9393H34.75C36.1424 26.9393 37.4777 26.3875 38.4623 25.4053C39.4469 24.423 40 23.0908 40 21.7017V5.24062C40.0004 4.55255 39.8649 3.87115 39.6012 3.23535C39.3376 2.59954 38.9509 2.0218 38.4634 1.53512C37.9758 1.04845 37.3969 0.662379 36.7598 0.398976C36.1226 0.135574 35.4397 -1.12337e-07 34.75 0ZM27.25 22.447C27.25 23.0389 27.0741 23.6175 26.7444 24.1097C26.4148 24.6019 25.9462 24.9855 25.3981 25.2121C24.8499 25.4386 24.2467 25.4979 23.6647 25.3824C23.0828 25.2669 22.5482 24.9818 22.1287 24.5633C21.7091 24.1447 21.4234 23.6114 21.3076 23.0308C21.1919 22.4503 21.2513 21.8485 21.4784 21.3016C21.7054 20.7547 22.0899 20.2873 22.5833 19.9584C23.0766 19.6296 23.6567 19.454 24.25 19.454C25.0456 19.454 25.8087 19.7694 26.3713 20.3306C26.9339 20.8919 27.25 21.6532 27.25 22.447Z" fill="#252525"/>
</g>
<defs>
<filter id="filter0_d_957_271" x="0" y="0" width="44" height="43" filterUnits="userSpaceOnUse" color-interpolation-filters="sRGB">
<feFlood flood-opacity="0" result="BackgroundImageFix"/>
<feColorMatrix in="SourceAlpha" type="matrix" values="0 0 0 0 0 0 0 0 0 0 0 0 0 0 0 0 0 0 127 0" result="hardAlpha"/>
<feOffset dy="4"/>
<feGaussianBlur stdDeviation="2"/>
<feComposite in2="hardAlpha" operator="out"/>
<feColorMatrix type="matrix" values="0 0 0 0 0 0 0 0 0 0 0 0 0 0 0 0 0 0 0.25 0"/>
<feBlend mode="normal" in2="BackgroundImageFix" result="effect1_dropShadow_957_271"/>
<feBlend mode="normal" in="SourceGraphic" in2="effect1_dropShadow_957_271" result="shape"/>
</filter>
</defs>
</svg>
